<svg width="319" height="56" viewBox="0 0 319 56" fill="none" xmlns="http://www.w3.org/2000/svg">
<g clip-path="url(#clip0_39894_5666)">
<path d="M9.34249 8.57756L24.203 0L39.0634 8.57756L33.6 11.7463L24.203 6.33756L14.8059 11.7463L9.34249 8.57756ZM39.0634 19.3951L33.6 16.2263L24.203 21.6351L14.8059 16.2263L9.34249 19.3951V25.7327L18.7395 31.1415V41.959L24.203 45.1278L29.6664 41.959V31.1415L39.0634 25.7327V19.3951ZM39.0634 36.5502V30.2127L33.6 33.3815V39.719L39.0634 36.5502ZM42.9425 38.7902L33.5454 44.199V50.5366L48.4059 41.959V24.8039L42.9425 27.9727V38.7902ZM37.4791 13.9863L42.9425 17.1551V23.4927L48.4059 20.3239V13.9863L42.9425 10.8176L37.4791 13.9863ZM18.7395 46.4937V52.8312L24.203 56L29.6664 52.8312V46.4937L24.203 49.6624L18.7395 46.4937ZM9.34249 36.5502L14.8059 39.719V33.3815L9.34249 30.2127V36.5502ZM18.7395 13.9863L24.203 17.1551L29.6664 13.9863L24.203 10.8176L18.7395 13.9863ZM5.46341 17.1551L10.9268 13.9863L5.46341 10.8176L0 13.9863V20.3239L5.46341 23.4927V17.1551ZM5.46341 27.9727L0 24.8039V41.959L14.8605 50.5366V44.199L5.46341 38.7902V27.9727Z" fill="#0B0E11"/>
<path d="M91.4781 35.1435V35.0544C91.4781 30.8693 89.252 28.7768 85.6457 27.3966C87.8718 26.15 89.7418 24.191 89.7418 20.6737V20.5847C89.7418 15.6872 85.8238 12.5261 79.4571 12.5261H64.9874V43.6917H79.8133C86.8478 43.6917 91.4781 40.8423 91.4781 35.1435ZM82.9299 21.8313C82.9299 24.1465 81.0154 25.1259 77.9879 25.1259H71.6657V18.5366H78.4331C81.3271 18.5366 82.9299 19.6942 82.9299 21.7422V21.8313ZM84.6662 34.2975C84.6662 36.6127 82.8408 37.6812 79.8133 37.6812H71.6657V30.8248H79.5907C83.1079 30.8248 84.6662 32.1159 84.6662 34.2085V34.2975Z" fill="#0B0E11"/>
<path d="M125.256 43.6917V12.5261H118.489V31.7152L103.886 12.5261H97.5634V43.6917H104.331V23.8793L119.424 43.6917H125.256Z" fill="#0B0E11"/>
<path d="M159.674 35.1435V35.0544C159.674 30.8693 157.448 28.7768 153.841 27.3966C156.067 26.15 157.937 24.191 157.937 20.6737V20.5847C157.937 15.6872 154.019 12.5261 147.653 12.5261H133.183V43.6917H148.009C155.043 43.6917 159.674 40.8423 159.674 35.1435ZM151.126 21.8313C151.126 24.1465 149.211 25.1259 146.184 25.1259H139.861V18.5366H146.629C149.523 18.5366 151.126 19.6942 151.126 21.7422V21.8313ZM152.862 34.2975C152.862 36.6127 151.036 37.6812 148.009 37.6812H139.861V30.8248H147.786C151.304 30.8248 152.862 32.1159 152.862 34.2085V34.2975Z" fill="#0B0E11"/>
<path d="M200.996 38.1863L197.479 34.6245C194.808 37.1178 192.359 38.6761 188.53 38.6761C182.564 38.6761 178.246 33.6896 178.246 27.5455C178.246 21.4014 182.564 16.5039 188.53 16.5039C192.092 16.5039 194.763 18.0622 197.257 20.3774L200.774 16.3259C197.791 13.4764 194.318 11.4729 188.575 11.4729C179.136 11.4729 172.502 18.7301 172.502 27.6345C172.502 36.628 179.27 43.7071 188.352 43.7071C194.185 43.7071 197.746 41.57 200.996 38.1863Z" fill="#0B0E11"/>
<path d="M227.544 30.0388V43.1729H233.021V12.0073H227.544V24.9633H212.674V12.0073H207.198V43.1729H212.674V30.0388H227.544Z" fill="#0B0E11"/>
<path d="M257.586 11.7847H252.511L238.798 43.1729H244.408L247.613 35.6486H262.35L265.511 43.1729H271.299L257.586 11.7847ZM260.347 30.7957H249.617L254.96 18.3295L260.347 30.7957Z" fill="#0B0E11"/>
<path d="M277.401 12.0073V43.1729H282.877V12.0073H277.401Z" fill="#0B0E11"/>
<path d="M313.436 33.5561L296.74 12.0073H291.665V43.1729H297.052V21.0008L314.238 43.1729H318.823V12.0073H313.436V33.5561Z" fill="#0B0E11"/>
</g>
<defs>
<clipPath id="clip0_39894_5666">
<rect width="319" height="56" fill="white"/>
</clipPath>
</defs>
</svg>
