<svg width="319" height="56" viewBox="0 0 319 56" fill="none" xmlns="http://www.w3.org/2000/svg">
<g clip-path="url(#clip0_39894_5720)">
<mask id="mask0_39894_5720" style="mask-type:luminance" maskUnits="userSpaceOnUse" x="0" y="0" width="319" height="56">
<path d="M319 0H0V56H319V0Z" fill="white"/>
</mask>
<g mask="url(#mask0_39894_5720)">
<path d="M9.34249 8.57756L24.203 0L39.0634 8.57756L33.6 11.7463L24.203 6.33756L14.8059 11.7463L9.34249 8.57756ZM39.0634 19.3951L33.6 16.2263L24.203 21.6351L14.8059 16.2263L9.34249 19.3951V25.7327L18.7395 31.1415V41.959L24.203 45.1278L29.6664 41.959V31.1415L39.0634 25.7327V19.3951ZM39.0634 36.5502V30.2127L33.6 33.3815V39.719L39.0634 36.5502ZM42.9425 38.7902L33.5454 44.199V50.5366L48.4059 41.959V24.8039L42.9425 27.9727V38.7902ZM37.4791 13.9863L42.9425 17.1551V23.4927L48.4059 20.3239V13.9863L42.9425 10.8176L37.4791 13.9863ZM18.7395 46.4937V52.8312L24.203 56L29.6664 52.8312V46.4937L24.203 49.6624L18.7395 46.4937ZM9.34249 36.5502L14.8059 39.719V33.3815L9.34249 30.2127V36.5502ZM18.7395 13.9863L24.203 17.1551L29.6664 13.9863L24.203 10.8176L18.7395 13.9863ZM5.46341 17.1551L10.9268 13.9863L5.46341 10.8176L0 13.9863V20.3239L5.46341 23.4927V17.1551ZM5.46341 27.9727L0 24.8039V41.959L14.8605 50.5366V44.199L5.46341 38.7902V27.9727Z" fill="white"/>
<path d="M91.4781 35.1433V35.0542C91.4781 30.8691 89.252 28.7766 85.6457 27.3964C87.8718 26.1498 89.7418 24.1908 89.7418 20.6735V20.5845C89.7418 15.687 85.8238 12.5259 79.4571 12.5259H64.9874V43.6915H79.8133C86.8478 43.6915 91.4781 40.8421 91.4781 35.1433ZM82.9299 21.8311C82.9299 24.1463 81.0154 25.1257 77.9879 25.1257H71.6657V18.5364H78.4331C81.3271 18.5364 82.9299 19.694 82.9299 21.742V21.8311ZM84.6662 34.2973C84.6662 36.6125 82.8408 37.681 79.8133 37.681H71.6657V30.8246H79.5907C83.1079 30.8246 84.6662 32.1157 84.6662 34.2083V34.2973Z" fill="white"/>
<path d="M125.256 43.6915V12.5259H118.489V31.715L103.886 12.5259H97.5634V43.6915H104.331V23.8791L119.424 43.6915H125.256Z" fill="white"/>
<path d="M159.674 35.1433V35.0542C159.674 30.8691 157.448 28.7766 153.841 27.3964C156.067 26.1498 157.937 24.1908 157.937 20.6735V20.5845C157.937 15.687 154.019 12.5259 147.653 12.5259H133.183V43.6915H148.009C155.043 43.6915 159.674 40.8421 159.674 35.1433ZM151.126 21.8311C151.126 24.1463 149.211 25.1257 146.184 25.1257H139.861V18.5364H146.629C149.523 18.5364 151.126 19.694 151.126 21.742V21.8311ZM152.862 34.2973C152.862 36.6125 151.036 37.681 148.009 37.681H139.861V30.8246H147.786C151.304 30.8246 152.862 32.1157 152.862 34.2083V34.2973Z" fill="white"/>
<path d="M200.996 38.1861L197.479 34.6243C194.808 37.1176 192.359 38.6759 188.53 38.6759C182.564 38.6759 178.246 33.6894 178.246 27.5453C178.246 21.4012 182.564 16.5037 188.53 16.5037C192.092 16.5037 194.763 18.062 197.257 20.3772L200.774 16.3257C197.791 13.4762 194.318 11.4727 188.575 11.4727C179.136 11.4727 172.502 18.7299 172.502 27.6343C172.502 36.6278 179.27 43.7069 188.352 43.7069C194.185 43.7069 197.746 41.5698 200.996 38.1861Z" fill="white"/>
<path d="M227.544 30.0388V43.1729H233.021V12.0073H227.544V24.9633H212.674V12.0073H207.198V43.1729H212.674V30.0388H227.544Z" fill="white"/>
<path d="M257.586 11.7847H252.511L238.798 43.1729H244.408L247.613 35.6486H262.35L265.511 43.1729H271.299L257.586 11.7847ZM260.347 30.7957H249.617L254.96 18.3295L260.347 30.7957Z" fill="white"/>
<path d="M277.401 12.0073V43.1729H282.877V12.0073H277.401Z" fill="white"/>
<path d="M313.436 33.5561L296.74 12.0073H291.665V43.1729H297.052V21.0008L314.238 43.1729H318.823V12.0073H313.436V33.5561Z" fill="white"/>
</g>
</g>
<defs>
<clipPath id="clip0_39894_5720">
<rect width="319" height="56" fill="white"/>
</clipPath>
</defs>
</svg>
