<svg width="241" height="112" viewBox="0 0 241 112" fill="none" xmlns="http://www.w3.org/2000/svg">
<g clip-path="url(#clip0_39894_5734)">
<mask id="mask0_39894_5734" style="mask-type:luminance" maskUnits="userSpaceOnUse" x="0" y="0" width="241" height="112">
<path d="M241 0H0V112H241V0Z" fill="white"/>
</mask>
<g mask="url(#mask0_39894_5734)">
<path d="M25.6016 103.712V103.626C25.6016 99.5684 23.4502 97.5396 19.9649 96.2015C22.1163 94.9929 23.9235 93.0936 23.9235 89.6835V89.5972C23.9235 84.849 20.1371 81.7842 13.9841 81.7842H0V112H14.3283C21.1267 112 25.6016 109.237 25.6016 103.712ZM17.3402 90.8058C17.3402 93.0504 15.49 94.0001 12.5641 94.0001H6.45418V87.6116H12.9944C15.7912 87.6116 17.3402 88.7339 17.3402 90.7195V90.8058ZM19.0183 102.892C19.0183 105.137 17.2542 106.173 14.3283 106.173H6.45418V99.5253H14.1132C17.5124 99.5253 19.0183 100.777 19.0183 102.806V102.892Z" fill="white"/>
<path d="M57.8157 112V81.7842H51.2755V100.388L37.1623 81.7842H31.0524V112H37.5926V92.7914L52.1791 112H57.8157Z" fill="white"/>
<path d="M90.6477 103.712V103.626C90.6477 99.5684 88.4963 97.5396 85.011 96.2015C87.1624 94.9929 88.9696 93.0936 88.9696 89.6835V89.5972C88.9696 84.849 85.1831 81.7842 79.0301 81.7842H65.0461V112H79.3744C86.1728 112 90.6477 109.237 90.6477 103.712ZM82.3863 90.8058C82.3863 93.0504 80.5361 94.0001 77.6102 94.0001H71.5003V87.6116H78.0405C80.8373 87.6116 82.3863 88.7339 82.3863 90.7195V90.8058ZM84.0644 102.892C84.0644 105.137 82.3003 106.173 79.3744 106.173H71.5003V99.5253H79.1592C82.5584 99.5253 84.0644 100.777 84.0644 102.806V102.892Z" fill="white"/>
<path d="M128.279 106.284L124.877 102.857C122.294 105.256 119.925 106.756 116.222 106.756C110.452 106.756 106.275 101.957 106.275 96.0436C106.275 90.1307 110.452 85.4174 116.222 85.4174C119.667 85.4174 122.251 86.9171 124.662 89.1452L128.064 85.2461C125.179 82.5038 121.82 80.5757 116.265 80.5757C107.136 80.5757 100.72 87.5598 100.72 96.1293C100.72 104.785 107.265 111.597 116.05 111.597C121.691 111.597 125.136 109.541 128.279 106.284Z" fill="white"/>
<path d="M153.526 98.4431V111.083H158.822V81.0898H153.526V93.5585H139.143V81.0898H133.846V111.083H139.143V98.4431H153.526Z" fill="white"/>
<path d="M182.152 80.8755H177.243L163.98 111.083H169.405L172.506 103.842H186.759L189.817 111.083H195.415L182.152 80.8755ZM184.821 99.1714H174.444L179.611 87.1741L184.821 99.1714Z" fill="white"/>
<path d="M200.885 81.0898V111.083H206.182V81.0898H200.885Z" fill="white"/>
<path d="M235.308 101.828L219.16 81.0898H214.251V111.083H219.461V89.7451L236.083 111.083H240.519V81.0898H235.308V101.828Z" fill="white"/>
<path d="M104.193 9.33208L120.284 0L136.375 9.33208L130.459 12.7796L120.284 6.89504L110.109 12.7796L104.193 9.33208ZM136.375 21.1012L130.459 17.6537L120.284 23.5382L110.109 17.6537L104.193 21.1012V27.9962L114.368 33.8808V45.6499L120.284 49.0974L126.2 45.6499V33.8808L136.375 27.9962V21.1012ZM136.375 39.7654V32.8703L130.459 36.3178V43.2129L136.375 39.7654ZM140.575 42.2024L130.4 48.087V54.982L146.491 45.6499V26.9858L140.575 30.4333V42.2024ZM134.66 15.2166L140.575 18.6642V25.5592L146.491 22.1117V15.2166L140.575 11.7691L134.66 15.2166ZM114.368 50.5834V57.4785L120.284 60.926L126.2 57.4785V50.5834L120.284 54.031L114.368 50.5834ZM104.193 39.7654L110.109 43.2129V36.3178L104.193 32.8703V39.7654ZM114.368 15.2166L120.284 18.6642L126.2 15.2166L120.284 11.7691L114.368 15.2166ZM99.9927 18.6642L105.909 15.2166L99.9927 11.7691L94.0769 15.2166V22.1117L99.9927 25.5592V18.6642ZM99.9927 30.4333L94.0769 26.9858V45.6499L110.168 54.982V48.087L99.9927 42.2024V30.4333Z" fill="white"/>
</g>
</g>
<defs>
<clipPath id="clip0_39894_5734">
<rect width="241" height="112" fill="white"/>
</clipPath>
</defs>
</svg>
